<svg width="40" height="40" viewBox="0 0 40 40" fill="none" xmlns="http://www.w3.org/2000/svg">
<path id="Facebook" d="M2.28308 0H37.7169C38.918 0 40 1.08196 40 2.28308V37.7169C40 38.918 38.918 40 37.7169 40H2.28308C1.08196 40 0 38.918 0 37.7169V2.28308C0 1.08196 1.08196 0 2.28308 0ZM28.4059 25.2852C28.4059 23.7248 29.6708 22.4599 31.2312 22.4599H31.4059C32.8187 22.4599 33.9815 21.3487 34.0457 19.9374C34.1141 18.4325 32.9124 17.175 31.4059 17.175H31.2231C29.6672 17.175 28.4059 15.9137 28.4059 14.3578V13.2718C28.4059 11.7709 28.7057 10.9292 30.6275 10.9292H31.3918C32.8373 10.9292 34.0189 9.77622 34.0544 8.33116C34.0872 6.99822 33.1261 5.85532 31.7942 5.79426C31.3853 5.77551 30.9336 5.76343 30.4487 5.76343C25.1638 5.76343 22.8212 9.06697 22.8212 12.6107V15.2234C22.8212 16.3012 21.9474 17.175 20.8696 17.175C19.7918 17.175 18.918 18.0487 18.918 19.1265V20.5083C18.918 21.5861 19.7918 22.4599 20.8696 22.4599C21.9474 22.4599 22.8212 23.3336 22.8212 24.4115V34.3211C22.8212 35.8633 24.0714 37.1135 25.6135 37.1135C27.1557 37.1135 28.4059 35.8633 28.4059 34.3211V25.2852Z" fill="black"/>
</svg>
