<svg width="40" height="40" viewBox="0 0 40 40" fill="none" xmlns="http://www.w3.org/2000/svg">
<g id="Instagram">
<g id="Group 1">
<path id="Vector" fill-rule="evenodd" clip-rule="evenodd" d="M20 30C25.5228 30 30 25.5228 30 20C30 14.4771 25.5228 10 20 10C14.4771 10 10 14.4771 10 20C10 25.5228 14.4771 30 20 30ZM20 26.6667C23.6818 26.6667 26.6667 23.6818 26.6667 20C26.6667 16.3181 23.6818 13.3333 20 13.3333C16.3181 13.3333 13.3333 16.3181 13.3333 20C13.3333 23.6818 16.3181 26.6667 20 26.6667Z" fill="black"/>
<path id="Vector_2" d="M29.9997 8.33325C29.0792 8.33325 28.333 9.07945 28.333 9.99992C28.333 10.9204 29.0792 11.6666 29.9997 11.6666C30.9202 11.6666 31.6663 10.9204 31.6663 9.99992C31.6663 9.07945 30.9202 8.33325 29.9997 8.33325Z" fill="black"/>
<path id="Vector_3" fill-rule="evenodd" clip-rule="evenodd" d="M2.75693 7.1266C1.66699 9.26572 1.66699 12.066 1.66699 17.6665V22.3332C1.66699 27.9337 1.66699 30.734 2.75693 32.873C3.71566 34.7547 5.24546 36.2845 7.12709 37.2432C9.26621 38.3332 12.0665 38.3332 17.667 38.3332H22.3337C27.9342 38.3332 30.7345 38.3332 32.8735 37.2432C34.7552 36.2845 36.285 34.7547 37.2437 32.873C38.3337 30.734 38.3337 27.9337 38.3337 22.3332V17.6665C38.3337 12.066 38.3337 9.26572 37.2437 7.1266C36.285 5.24497 34.7552 3.71517 32.8735 2.75644C30.7345 1.6665 27.9342 1.6665 22.3337 1.6665H17.667C12.0665 1.6665 9.26621 1.6665 7.12709 2.75644C5.24546 3.71517 3.71566 5.24497 2.75693 7.1266ZM22.3337 4.99984H17.667C14.8117 4.99984 12.8707 5.00244 11.3705 5.125C9.90906 5.2444 9.16173 5.46082 8.64039 5.72645C7.38598 6.36562 6.36611 7.38549 5.72694 8.6399C5.46131 9.16124 5.24489 9.90857 5.12549 11.37C5.00293 12.8703 5.00033 14.8112 5.00033 17.6665V22.3332C5.00033 25.1885 5.00293 27.1293 5.12549 28.6297C5.24489 30.0912 5.46131 30.8385 5.72694 31.3598C6.36611 32.6142 7.38598 33.634 8.64039 34.2732C9.16173 34.5388 9.90906 34.7553 11.3705 34.8747C12.8707 34.9972 14.8117 34.9998 17.667 34.9998H22.3337C25.189 34.9998 27.1298 34.9972 28.6302 34.8747C30.0917 34.7553 30.839 34.5388 31.3603 34.2732C32.6147 33.634 33.6345 32.6142 34.2737 31.3598C34.5393 30.8385 34.7558 30.0912 34.8752 28.6297C34.9977 27.1293 35.0003 25.1885 35.0003 22.3332V17.6665C35.0003 14.8112 34.9977 12.8703 34.8752 11.37C34.7558 9.90857 34.5393 9.16124 34.2737 8.6399C33.6345 7.38549 32.6147 6.36562 31.3603 5.72645C30.839 5.46082 30.0917 5.2444 28.6302 5.125C27.1298 5.00244 25.189 4.99984 22.3337 4.99984Z" fill="black"/>
</g>
</g>
</svg>
