<svg width="40" height="40" viewBox="0 0 40 40" fill="none" xmlns="http://www.w3.org/2000/svg">
<path id="Twitter" d="M36.875 0H3.125C1.39844 0 0 1.39844 0 3.125V36.875C0 38.6016 1.39844 40 3.125 40H36.875C38.6016 40 40 38.6016 40 36.875V3.125C40 1.39844 38.6016 0 36.875 0ZM28.3042 16.6462C28.1081 16.8034 27.9915 17.0417 27.9921 17.2931C27.9922 17.3359 27.9922 17.3789 27.9922 17.4219C27.9922 22.8516 23.8594 29.1172 16.2969 29.1172C14.3298 29.1172 12.4751 28.6287 10.8516 27.7708C10.6397 27.6587 10.7446 27.3281 10.9844 27.3281C11.7683 27.3281 12.5276 27.2189 13.2473 27.0148C14.2776 26.7227 13.9654 25.0982 13.2178 24.3316C12.9576 24.0648 12.7337 23.7628 12.5542 23.4333C12.3858 23.1242 12.6714 22.7891 13.0234 22.7891C13.3069 22.7891 13.3257 22.411 13.0726 22.2834C11.7308 21.6071 10.8125 20.2148 10.8125 18.6094C10.8125 18.5883 10.8351 18.5749 10.8537 18.5848C11.0244 18.6762 11.2023 18.7565 11.3863 18.8244C11.7394 18.9547 11.9436 18.4827 11.7124 18.1858C11.1683 17.487 10.8438 16.6065 10.8438 15.6562C10.8438 14.6096 12.116 14.4548 12.9143 15.1316C14.5832 16.5463 16.6504 17.4985 18.9253 17.7974C19.3944 17.8591 19.7578 17.4185 19.7578 16.9453C19.7578 14.6797 21.6016 12.8359 23.8672 12.8359C24.8716 12.8359 25.7968 13.1984 26.5125 13.798C26.7452 13.993 27.049 14.1 27.3428 14.0236C27.751 13.9175 28.1462 13.7821 28.5272 13.6182C28.8692 13.471 29.2249 13.7823 29.0235 14.0955C28.9367 14.2305 28.8421 14.3601 28.7405 14.4836C28.5334 14.7355 28.7573 15.2081 29.0697 15.1144C29.3592 15.0276 29.6031 15.3554 29.4057 15.5844C29.0726 15.9706 28.7036 16.3256 28.3042 16.6462Z" fill="black"/>
</svg>
